# Rhino

mtllib 1_1.mtl
usemtl diffuse_0_0_0_255
v 81.949546813964844 0 -38.623630523681641
v 44.415985107421875 0 -29.703409194946289
v 25.352731704711914 0 -29.703409194946289
v 25.352731704711914 0 -10.873380661010742
v 47.917789459228516 0 -10.873380661010742
v 79.821372985839844 0 -17.545276641845703
v 44.415985107421875 0 -29.703409194946289
v 44.415985107421875 2.5 -29.703409194946289
v 81.949546813964844 0 -38.623630523681641
v 81.949546813964844 2.5 -38.623630523681641
v 25.352731704711914 0 -29.703409194946289
v 25.352731704711914 2.5 -29.703409194946289
v 44.415985107421875 0 -29.703409194946289
v 44.415985107421875 2.5 -29.703409194946289
v 25.352731704711914 0 -10.873380661010742
v 25.352731704711914 2.5 -10.873380661010742
v 25.352731704711914 0 -29.703409194946289
v 25.352731704711914 2.5 -29.703409194946289
v 47.917789459228516 0 -10.873380661010742
v 47.917789459228516 2.5 -10.873380661010742
v 25.352731704711914 0 -10.873380661010742
v 25.352731704711914 2.5 -10.873380661010742
v 79.821372985839844 0 -17.545276641845703
v 79.821372985839844 2.5 -17.545276641845703
v 47.917789459228516 0 -10.873380661010742
v 47.917789459228516 2.5 -10.873380661010742
v 81.949546813964844 0 -38.623630523681641
v 81.949546813964844 2.5 -38.623630523681641
v 79.821372985839844 0 -17.545276641845703
v 79.821372985839844 2.5 -17.545276641845703
v 81.949546813964844 2.5 -38.623630523681641
v 44.415985107421875 2.5 -29.703409194946289
v 25.352731704711914 2.5 -29.703409194946289
v 25.352731704711914 2.5 -10.873380661010742
v 47.917789459228516 2.5 -10.873380661010742
v 79.821372985839844 2.5 -17.545276641845703
vt 0.9391096830368042 0.99853515625
vt 0.37803828716278076 0.8654252290725708
vt 0.093070685863494873 0.8654252290725708
vt 0.093070685863494873 0.58443844318389893
vt 0.4303850531578064 0.58443844318389893
vt 0.90729659795761108 0.68399828672409058
vt 0.073404476046562195 0
vt 0.037434659898281097 0
vt 0.073404476046562195 0.57767653465270996
vt 0.037434659898281097 0.57767653465270996
vt 0.074869319796562195 0.037434659898281097
vt 0.074869319796562195 0.073404476046562195
vt 0.36031988263130188 0.037434659898281097
vt 0.36031988263130188 0.073404476046562195
vt 0.074869319796562195 0
vt 0.074869319796562195 0.035969816148281097
vt 0.35682758688926697 0
vt 0.35682758688926697 0.035969816148281097
vt 0.074869319796562195 0.11230397969484329
vt 0.074869319796562195 0.14827379584312439
vt 0.41275542974472046 0.11230397969484329
vt 0.41275542974472046 0.14827379584312439
vt 0.035969816148281097 0
vt 0 0
vt 0.035969816148281097 0.48805439472198486
vt 0 0.48805439472198486
vt 0.074869319796562195 0.074869319796562195
vt 0.074869319796562195 0.11083913594484329
vt 0.39209833741188049 0.074869319796562195
vt 0.39209833741188049 0.11083913594484329
vt 0.9391096830368042 0.57340449094772339
vt 0.37803828716278076 0.4402945339679718
vt 0.093070685863494873 0.4402945339679718
vt 0.093070685863494873 0.15930777788162231
vt 0.4303850531578064 0.15930777788162231
vt 0.90729659795761108 0.25886762142181396
vn 0 -1 0
vn 0 -1 0
vn 0 -1 0
vn 0 -1 0
vn 0 -1 0
vn 0 -1 0
vn -0.23121967911720276 0 -0.97290158271789551
vn -0.23121967911720276 0 -0.97290158271789551
vn -0.23121967911720276 0 -0.97290158271789551
vn -0.23121967911720276 0 -0.97290158271789551
vn 0 0 -1
vn 0 0 -1
vn 0 0 -1
vn 0 0 -1
vn -1 0 0
vn -1 0 0
vn -1 0 0
vn -1 0 0
vn 0 0 1
vn 0 0 1
vn 0 0 1
vn 0 0 1
vn 0.20469865202903748 0 0.97882503271102905
vn 0.20469865202903748 0 0.97882503271102905
vn 0.20469865202903748 0 0.97882503271102905
vn 0.20469865202903748 0 0.97882503271102905
vn 0.99494165182113647 0 0.10045427083969116
vn 0.99494165182113647 0 0.10045427083969116
vn 0.99494165182113647 0 0.10045427083969116
vn 0.99494165182113647 0 0.10045427083969116
vn 0 1 0
vn 0 1 0
vn 0 1 0
vn 0 1 0
vn 0 1 0
vn 0 1 0
f 2/2/2 5/5/5 4/4/4 3/3/3
f 2/2/2 1/1/1 6/6/6
f 5/5/5 2/2/2 6/6/6
f 8/8/8 10/10/10 9/9/9 7/7/7
f 12/12/12 14/14/14 13/13/13 11/11/11
f 16/16/16 18/18/18 17/17/17 15/15/15
f 20/20/20 22/22/22 21/21/21 19/19/19
f 24/24/24 26/26/26 25/25/25 23/23/23
f 28/28/28 30/30/30 29/29/29 27/27/27
f 32/32/32 33/33/33 34/34/34 35/35/35
f 32/32/32 36/36/36 31/31/31
f 35/35/35 36/36/36 32/32/32
