# Rhino

mtllib 1_2.mtl
usemtl diffuse_0_0_0_255
v 79.821372985839844 0 -17.545276641845703
v 104.32275390625 0 -75
v 85.622283935546875 0 -75
v 81.949546813964844 0 -38.623630523681641
v 98.0350341796875 0 -42.446506500244141
v 93.789573669433594 0 -20.466403961181641
v 79.821372985839844 0 -17.545276641845703
v 79.821372985839844 2.5 -17.545276641845703
v 81.949546813964844 0 -38.623630523681641
v 81.949546813964844 2.5 -38.623630523681641
v 93.789573669433594 0 -20.466403961181641
v 93.789573669433594 2.5 -20.466403961181641
v 79.821372985839844 0 -17.545276641845703
v 79.821372985839844 2.5 -17.545276641845703
v 98.0350341796875 0 -42.446506500244141
v 98.0350341796875 2.5 -42.446506500244141
v 93.789573669433594 0 -20.466403961181641
v 93.789573669433594 2.5 -20.466403961181641
v 104.32275390625 0 -75
v 104.32275390625 2.5 -75
v 98.0350341796875 0 -42.446506500244141
v 98.0350341796875 2.5 -42.446506500244141
v 85.622283935546875 0 -75
v 85.622283935546875 2.5 -75
v 104.32275390625 0 -75
v 104.32275390625 2.5 -75
v 81.949546813964844 0 -38.623630523681641
v 81.949546813964844 2.5 -38.623630523681641
v 85.622283935546875 0 -75
v 85.622283935546875 2.5 -75
v 79.821372985839844 2.5 -17.545276641845703
v 81.949546813964844 2.5 -38.623630523681641
v 93.789573669433594 2.5 -20.466403961181641
v 98.0350341796875 2.5 -42.446506500244141
v 104.32275390625 2.5 -75
v 85.622283935546875 2.5 -75
vt 0.99853515625 0.54680794477462769
vt 0.089391529560089111 0.9336622953414917
vt 0.089391529560089111 0.63839906454086304
vt 0.66499859094619751 0.58040988445281982
vt 0.6045067310333252 0.8343849778175354
vt 0.95231229066848755 0.76735293865203857
vt 0.079244337975978851 0.079244337975978851
vt 0.079244337975978851 0.11740166693925858
vt 0.41501078009605408 0.079244337975978851
vt 0.41501078009605408 0.11740166693925858
vt 0.079244337975978851 0
vt 0.079244337975978851 0.038157325237989426
vt 0.3054136335849762 0
vt 0.3054136335849762 0.038157325237989426
vt 0.079244337975978851 0.11886651068925858
vt 0.079244337975978851 0.1570238322019577
vt 0.43404272198677063 0.11886651068925858
vt 0.43404272198677063 0.1570238322019577
vt 0.038157325237989426 0
vt 0 0
vt 0.038157325237989426 0.52547192573547363
vt 0 0.52547192573547363
vt 0.079244337975978851 0.039622168987989426
vt 0.079244337975978851 0.077779494225978851
vt 0.37562564015388489 0.039622168987989426
vt 0.37562564015388489 0.077779494225978851
vt 0.077779494225978851 0
vt 0.039622168987989426 0
vt 0.077779494225978851 0.57945537567138672
vt 0.039622168987989426 0.57945537567138672
vt 0.99853515625 0.1584886759519577
vt 0.66499859094619751 0.19209061563014984
vt 0.95231229066848755 0.37903371453285217
vt 0.6045067310333252 0.44606572389602661
vt 0.089391529560089111 0.54534310102462769
vt 0.089391529560089111 0.25007981061935425
vn 0 -1 0
vn 0 -1 0
vn 0 -1 0
vn 0 -1 0
vn 0 -1 0
vn 0 -1 0
vn -0.99494165182113647 0 -0.10045427083969116
vn -0.99494165182113647 0 -0.10045427083969116
vn -0.99494165182113647 0 -0.10045427083969116
vn -0.99494165182113647 0 -0.10045427083969116
vn 0.20469865202903748 0 0.97882503271102905
vn 0.20469865202903748 0 0.97882503271102905
vn 0.20469865202903748 0 0.97882503271102905
vn 0.20469865202903748 0 0.97882503271102905
vn 0.98185265064239502 0 0.18964524567127228
vn 0.98185265064239502 0 0.18964524567127228
vn 0.98185265064239502 0 0.18964524567127228
vn 0.98185265064239502 0 0.18964524567127228
vn 0.98185265064239502 0 0.18964524567127228
vn 0.98185265064239502 0 0.18964524567127228
vn 0.98185265064239502 0 0.18964524567127228
vn 0.98185265064239502 0 0.18964524567127228
vn 0 0 -1
vn 0 0 -1
vn 0 0 -1
vn 0 0 -1
vn -0.99494165182113647 0 -0.10045427083969116
vn -0.99494165182113647 0 -0.10045427083969116
vn -0.99494165182113647 0 -0.10045427083969116
vn -0.99494165182113647 0 -0.10045427083969116
vn 0 1 0
vn 0 1 0
vn 0 1 0
vn 0 1 0
vn 0 1 0
vn 0 1 0
f 6/6/6 1/1/1 4/4/4
f 5/5/5 4/4/4 3/3/3
f 3/3/3 2/2/2 5/5/5
f 4/4/4 5/5/5 6/6/6
f 8/8/8 10/10/10 9/9/9 7/7/7
f 12/12/12 14/14/14 13/13/13 11/11/11
f 16/16/16 18/18/18 17/17/17 15/15/15
f 20/20/20 22/22/22 21/21/21 19/19/19
f 24/24/24 26/26/26 25/25/25 23/23/23
f 28/28/28 30/30/30 29/29/29 27/27/27
f 33/33/33 32/32/32 31/31/31
f 34/34/34 36/36/36 32/32/32
f 36/36/36 34/34/34 35/35/35
f 32/32/32 33/33/33 34/34/34
