# Rhino

mtllib 2_1.mtl
usemtl diffuse_0_0_0_255
v 44.415985107421875 50 -29.703409194946289
v 25.352731704711914 50 -29.703409194946289
v 25.352731704711914 50 -10.873380661010742
v 47.917789459228516 50 -10.873380661010742
v 47.5745849609375 50 -18.280204772949219
v 30.29530143737793 50 -18.280204772949219
v 30.29530143737793 50 -22.296585083007813
v 44.805473327636719 50 -22.296585083007813
v 30.29530143737793 50 -18.280204772949219
v 30.29530143737793 52.5 -18.280204772949219
v 47.5745849609375 50 -18.280204772949219
v 47.5745849609375 52.5 -18.280204772949219
v 30.29530143737793 50 -22.296585083007813
v 30.29530143737793 52.5 -22.296585083007813
v 30.29530143737793 50 -18.280204772949219
v 30.29530143737793 52.5 -18.280204772949219
v 44.805473327636719 50 -22.296585083007813
v 44.805473327636719 52.5 -22.296585083007813
v 30.29530143737793 50 -22.296585083007813
v 30.29530143737793 52.5 -22.296585083007813
v 44.415985107421875 50 -29.703409194946289
v 44.415985107421875 52.5 -29.703409194946289
v 44.805473327636719 50 -22.296585083007813
v 44.805473327636719 52.5 -22.296585083007813
v 25.352731704711914 50 -29.703409194946289
v 25.352731704711914 52.5 -29.703409194946289
v 44.415985107421875 50 -29.703409194946289
v 44.415985107421875 52.5 -29.703409194946289
v 25.352731704711914 50 -10.873380661010742
v 25.352731704711914 52.5 -10.873380661010742
v 25.352731704711914 50 -29.703409194946289
v 25.352731704711914 52.5 -29.703409194946289
v 47.917789459228516 50 -10.873380661010742
v 47.917789459228516 52.5 -10.873380661010742
v 25.352731704711914 50 -10.873380661010742
v 25.352731704711914 52.5 -10.873380661010742
v 47.5745849609375 50 -18.280204772949219
v 47.5745849609375 52.5 -18.280204772949219
v 47.917789459228516 50 -10.873380661010742
v 47.917789459228516 52.5 -10.873380661010742
v 47.5745849609375 52.5 -18.280204772949219
v 30.29530143737793 52.5 -18.280204772949219
v 30.29530143737793 52.5 -22.296585083007813
v 44.805473327636719 52.5 -22.296585083007813
v 44.415985107421875 52.5 -29.703409194946289
v 25.352731704711914 52.5 -29.703409194946289
v 25.352731704711914 52.5 -10.873380661010742
v 47.917789459228516 52.5 -10.873380661010742
vt 0.91779166460037231 0.91108280420303345
vt 0.47823727130889893 0.91108280420303345
vt 0.47823727130889893 0.47716283798217773
vt 0.99853515625 0.47716283798217773
vt 0.99062162637710571 0.64784598350524902
vt 0.59220147132873535 0.64784598350524902
vt 0.59220147132873535 0.74039965867996216
vt 0.9267723560333252 0.74039965867996216
vt 0.45016217231750488 0
vt 0.45016217231750488 0.056333336979150772
vt 0.84964662790298462 0
vt 0.84964662790298462 0.056333336979150772
vt 0.45016217231750488 0.11559636145830154
vt 0.45016217231750488 0.17192970216274261
vt 0.54301798343658447 0.11559636145830154
vt 0.54301798343658447 0.17192970216274261
vt 0.45016217231750488 0.4045872688293457
vt 0.45016217231750488 0.46092060208320618
vt 0.78562682867050171 0.4045872688293457
vt 0.78562682867050171 0.46092060208320618
vt 0.45016217231750488 0.34678909182548523
vt 0.45016217231750488 0.4031224250793457
vt 0.62163913249969482 0.34678909182548523
vt 0.62163913249969482 0.4031224250793457
vt 0.45016217231750488 0.23119272291660309
vt 0.45016217231750488 0.28752607107162476
vt 0.89089077711105347 0.23119272291660309
vt 0.89089077711105347 0.28752607107162476
vt 0.45016217231750488 0.057798180729150772
vt 0.45016217231750488 0.11413151770830154
vt 0.88549870252609253 0.057798180729150772
vt 0.88549870252609253 0.11413151770830154
vt 0.45016217231750488 0.28899091482162476
vt 0.45016217231750488 0.34532424807548523
vt 0.97184991836547852 0.28899091482162476
vt 0.97184991836547852 0.34532424807548523
vt 0.45016217231750488 0.17339454591274261
vt 0.45016217231750488 0.22972787916660309
vt 0.62158626317977905 0.17339454591274261
vt 0.62158626317977905 0.22972787916660309
vt 0.26323679089546204 0.54190313816070557
vt 0.26323679089546204 0.14241869747638702
vt 0.17068314552307129 0.14241869747638702
vt 0.17068314552307129 0.47788333892822266
vt 0 0.46887868642807007
vt 0 0.028150094673037529
vt 0.43391996622085571 0.028150094673037529
vt 0.43391996622085571 0.54983782768249512
vn 0 -1 0
vn 0 -1 0
vn 0 -1 0
vn 0 -1 0
vn 0 -1 0
vn 0 -1 0
vn 0 -1 0
vn 0 -1 0
vn 0 0 -1
vn 0 0 -1
vn 0 0 -1
vn 0 0 -1
vn 1 0 0
vn 1 0 0
vn 1 0 0
vn 1 0 0
vn 0 0 1
vn 0 0 1
vn 0 0 1
vn 0 0 1
vn 0.99862027168273926 0 -0.052512470632791519
vn 0.99862027168273926 0 -0.052512470632791519
vn 0.99862027168273926 0 -0.052512470632791519
vn 0.99862027168273926 0 -0.052512470632791519
vn 0 0 -1
vn 0 0 -1
vn 0 0 -1
vn 0 0 -1
vn -1 0 0
vn -1 0 0
vn -1 0 0
vn -1 0 0
vn 0 0 1
vn 0 0 1
vn 0 0 1
vn 0 0 1
vn 0.99892818927764893 0 -0.046286739408969879
vn 0.99892818927764893 0 -0.046286739408969879
vn 0.99892818927764893 0 -0.046286739408969879
vn 0.99892818927764893 0 -0.046286739408969879
vn 0 1 0
vn 0 1 0
vn 0 1 0
vn 0 1 0
vn 0 1 0
vn 0 1 0
vn 0 1 0
vn 0 1 0
f 2/2/2 7/7/7 6/6/6 3/3/3
f 4/4/4 3/3/3 6/6/6
f 1/1/1 7/7/7 2/2/2
f 7/7/7 1/1/1 8/8/8
f 4/4/4 6/6/6 5/5/5
f 10/10/10 12/12/12 11/11/11 9/9/9
f 14/14/14 16/16/16 15/15/15 13/13/13
f 18/18/18 20/20/20 19/19/19 17/17/17
f 22/22/22 24/24/24 23/23/23 21/21/21
f 26/26/26 28/28/28 27/27/27 25/25/25
f 30/30/30 32/32/32 31/31/31 29/29/29
f 34/34/34 36/36/36 35/35/35 33/33/33
f 38/38/38 40/40/40 39/39/39 37/37/37
f 46/46/46 47/47/47 42/42/42 43/43/43
f 48/48/48 42/42/42 47/47/47
f 45/45/45 46/46/46 43/43/43
f 43/43/43 44/44/44 45/45/45
f 48/48/48 41/41/41 42/42/42
