# Rhino

mtllib 2_4.mtl
usemtl diffuse_0_0_0_255
v 93.789573669433594 50 -20.466403961181641
v 147.11302185058594 50 -31.617773056030273
v 142.057861328125 50 -52.908966064453125
v 98.0350341796875 50 -42.446506500244141
v 100.65691375732422 50 -29.381147384643555
v 101.90985107421875 50 -35.868003845214844
v 138.77743530273438 50 -44.629951477050781
v 140.42343139648438 50 -37.697395324707031
v 93.789573669433594 50 -20.466403961181641
v 93.789573669433594 52.5 -20.466403961181641
v 98.0350341796875 50 -42.446506500244141
v 98.0350341796875 52.5 -42.446506500244141
v 147.11302185058594 50 -31.617773056030273
v 147.11302185058594 52.5 -31.617773056030273
v 93.789573669433594 50 -20.466403961181641
v 93.789573669433594 52.5 -20.466403961181641
v 107.12043762207031 51.25 -23.254245758056641
v 100.45500183105469 51.25 -21.860324859619141
v 107.12043762207031 50.625 -23.254245758056641
v 100.45500183105469 50.625 -21.860324859619141
v 107.12043762207031 51.875 -23.254245758056641
v 100.45500183105469 51.875 -21.860324859619141
v 133.78216552734375 51.25 -28.829931259155273
v 133.78216552734375 51.875 -28.829931259155273
v 140.44760131835938 51.25 -30.223852157592773
v 140.44760131835938 51.875 -30.223852157592773
v 133.78216552734375 50.625 -28.829931259155273
v 140.44760131835938 50.625 -30.223852157592773
v 142.057861328125 50 -52.908966064453125
v 142.057861328125 52.5 -52.908966064453125
v 147.11302185058594 50 -31.617773056030273
v 147.11302185058594 52.5 -31.617773056030273
v 98.0350341796875 50 -42.446506500244141
v 98.0350341796875 52.5 -42.446506500244141
v 142.057861328125 50 -52.908966064453125
v 142.057861328125 52.5 -52.908966064453125
v 138.77743530273438 50 -44.629951477050781
v 138.77743530273438 52.5 -44.629951477050781
v 101.90985107421875 50 -35.868003845214844
v 101.90985107421875 52.5 -35.868003845214844
v 140.42343139648438 50 -37.697395324707031
v 140.42343139648438 52.5 -37.697395324707031
v 138.77743530273438 50 -44.629951477050781
v 138.77743530273438 52.5 -44.629951477050781
v 100.65691375732422 50 -29.381147384643555
v 100.65691375732422 52.5 -29.381147384643555
v 140.42343139648438 50 -37.697395324707031
v 140.42343139648438 52.5 -37.697395324707031
v 101.90985107421875 50 -35.868003845214844
v 101.90985107421875 52.5 -35.868003845214844
v 100.65691375732422 50 -29.381147384643555
v 100.65691375732422 52.5 -29.381147384643555
v 93.789573669433594 52.5 -20.466403961181641
v 98.0350341796875 52.5 -42.446506500244141
v 147.11302185058594 52.5 -31.617773056030273
v 142.057861328125 52.5 -52.908966064453125
v 101.90985107421875 52.5 -35.868003845214844
v 138.77743530273438 52.5 -44.629951477050781
v 140.42343139648438 52.5 -37.697395324707031
v 100.65691375732422 52.5 -29.381147384643555
vt 0.21463796496391296 0.53577297925949097
vt 0.97622174024581909 0.69483661651611328
vt 0.90402209758758545 0.99853515625
vt 0.27527314424514771 0.84929817914962769
vt 0.31271964311599731 0.66293329000473022
vt 0.33061453700065613 0.75546211004257202
vt 0.85716992616653442 0.88044291734695435
vt 0.88067865371704102 0.78155666589736938
vt 0.21317312121391296 0
vt 0.1788649708032608 0
vt 0.21317312121391296 0.32033076882362366
vt 0.1788649708032608 0.32033076882362366
vt 0.21463796496391296 0.035772994160652161
vt 0.21463796496391296 0.070081144571304321
vt 0.99361193180084229 0.035772994160652161
vt 0.99361193180084229 0.070081144571304321
vt 0.79886841773986816 0.052927069365978241
vt 0.89624017477035522 0.052927069365978241
vt 0.79886841773986816 0.044350031763315201
vt 0.89624017477035522 0.044350031763315201
vt 0.79886841773986816 0.061504106968641281
vt 0.89624017477035522 0.061504106968641281
vt 0.4093814492225647 0.052927069365978241
vt 0.4093814492225647 0.061504106968641281
vt 0.31200972199440002 0.052927069365978241
vt 0.31200972199440002 0.061504106968641281
vt 0.4093814492225647 0.044350031763315201
vt 0.31200972199440002 0.044350031763315201
vt 0.1774001270532608 0
vt 0.14309197664260864 0
vt 0.1774001270532608 0.31312942504882813
vt 0.14309197664260864 0.31312942504882813
vt 0.21463796496391296 0
vt 0.21463796496391296 0.034308150410652161
vt 0.86211484670639038 0
vt 0.86211484670639038 0.034308150410652161
vt 0.034308150410652161 0
vt 0 0
vt 0.034308150410652161 0.54223942756652832
vt 0 0.54223942756652832
vt 0.14162713289260864 0
vt 0.10731898248195648 0
vt 0.14162713289260864 0.1019570380449295
vt 0.10731898248195648 0.1019570380449295
vt 0.070081144571304321 0
vt 0.035772994160652161 0
vt 0.070081144571304321 0.58133679628372192
vt 0.035772994160652161 0.58133679628372192
vt 0.10585413873195648 0
vt 0.071545988321304321 0
vt 0.10585413873195648 0.094537325203418732
vt 0.071545988321304321 0.094537325203418732
vt 0.21463796496391296 0.071545988321304321
vt 0.27527314424514771 0.38507115840911865
vt 0.97622174024581909 0.23060962557792664
vt 0.90402209758758545 0.53430813550949097
vt 0.33061453700065613 0.29123511910438538
vt 0.85716992616653442 0.4162159264087677
vt 0.88067865371704102 0.31732964515686035
vt 0.31271964311599731 0.19870628416538239
vn 0 -1 0
vn 0 -1 0
vn 0 -1 0
vn 0 -1 0
vn 0 -1 0
vn 0 -1 0
vn 0 -1 0
vn 0 -1 0
vn -0.98185265064239502 0 -0.18964524567127228
vn -0.98185265064239502 0 -0.18964524567127228
vn -0.98185265064239502 0 -0.18964524567127228
vn -0.98185265064239502 0 -0.18964524567127228
vn 0.20469865202903748 0 0.97882503271102905
vn 0.20469865202903748 0 0.97882503271102905
vn 0.20469865202903748 0 0.97882503271102905
vn 0.20469865202903748 0 0.97882503271102905
vn 0.20469865202903748 0 0.97882503271102905
vn 0.20469865202903748 0 0.97882503271102905
vn 0.20469865202903748 0 0.97882503271102905
vn 0.20469865202903748 0 0.97882503271102905
vn 0.20469865202903748 0 0.97882503271102905
vn 0.20469865202903748 0 0.97882503271102905
vn 0.20469865202903748 0 0.97882503271102905
vn 0.20469865202903748 0 0.97882503271102905
vn 0.20469865202903748 0 0.97882503271102905
vn 0.20469865202903748 0 0.97882503271102905
vn 0.20469865202903748 0 0.97882503271102905
vn 0.20469865202903748 0 0.97882503271102905
vn 0.97295182943344116 0 -0.23100806772708893
vn 0.97295182943344116 0 -0.23100806772708893
vn 0.97295182943344116 0 -0.23100806772708893
vn 0.97295182943344116 0 -0.23100806772708893
vn -0.23121967911720276 0 -0.97290158271789551
vn -0.23121967911720276 0 -0.97290158271789551
vn -0.23121967911720276 0 -0.97290158271789551
vn -0.23121967911720276 0 -0.97290158271789551
vn 0.23121967911720276 0 0.97290158271789551
vn 0.23121967911720276 0 0.97290158271789551
vn 0.23121967911720276 0 0.97290158271789551
vn 0.23121967911720276 0 0.97290158271789551
vn -0.97295182943344116 0 0.23100806772708893
vn -0.97295182943344116 0 0.23100806772708893
vn -0.97295182943344116 0 0.23100806772708893
vn -0.97295182943344116 0 0.23100806772708893
vn -0.20469865202903748 0 -0.97882503271102905
vn -0.20469865202903748 0 -0.97882503271102905
vn -0.20469865202903748 0 -0.97882503271102905
vn -0.20469865202903748 0 -0.97882503271102905
vn 0.98185265064239502 0 0.18964524567127228
vn 0.98185265064239502 0 0.18964524567127228
vn 0.98185265064239502 0 0.18964524567127228
vn 0.98185265064239502 0 0.18964524567127228
vn 0 1 0
vn 0 1 0
vn 0 1 0
vn 0 1 0
vn 0 1 0
vn 0 1 0
vn 0 1 0
vn 0 1 0
f 4/4/4 5/5/5 1/1/1
f 2/2/2 1/1/1 5/5/5
f 7/7/7 6/6/6 4/4/4
f 5/5/5 4/4/4 6/6/6
f 7/7/7 2/2/2 8/8/8
f 5/5/5 8/8/8 2/2/2
f 4/4/4 3/3/3 7/7/7
f 2/2/2 7/7/7 3/3/3
f 10/10/10 12/12/12 11/11/11 9/9/9
f 24/24/24 23/23/23 25/25/25 26/26/26
f 23/23/23 27/27/27 28/28/28 25/25/25
f 22/22/22 18/18/18 17/17/17 21/21/21
f 18/18/18 20/20/20 19/19/19 17/17/17
f 25/25/25 28/28/28 13/13/13
f 27/27/27 13/13/13 28/28/28
f 13/13/13 27/27/27 19/19/19 15/15/15
f 14/14/14 25/25/25 13/13/13
f 24/24/24 26/26/26 14/14/14
f 25/25/25 14/14/14 26/26/26
f 24/24/24 21/21/21 17/17/17 23/23/23
f 16/16/16 21/21/21 24/24/24 14/14/14
f 23/23/23 17/17/17 19/19/19 27/27/27
f 18/18/18 15/15/15 20/20/20
f 19/19/19 20/20/20 15/15/15
f 21/21/21 16/16/16 22/22/22
f 18/18/18 22/22/22 16/16/16
f 16/16/16 15/15/15 18/18/18
f 30/30/30 32/32/32 31/31/31 29/29/29
f 34/34/34 36/36/36 35/35/35 33/33/33
f 38/38/38 40/40/40 39/39/39 37/37/37
f 42/42/42 44/44/44 43/43/43 41/41/41
f 46/46/46 48/48/48 47/47/47 45/45/45
f 50/50/50 52/52/52 51/51/51 49/49/49
f 54/54/54 53/53/53 60/60/60
f 55/55/55 60/60/60 53/53/53
f 58/58/58 54/54/54 57/57/57
f 60/60/60 57/57/57 54/54/54
f 58/58/58 59/59/59 55/55/55
f 60/60/60 55/55/55 59/59/59
f 54/54/54 58/58/58 56/56/56
f 55/55/55 56/56/56 58/58/58
