# Rhino

mtllib 3_3.mtl
usemtl diffuse_0_0_0_255
v 44.805473327636719 100 -22.296585083007813
v 76.052032470703125 100 -29.722639083862305
v 75.486083984375 100 -24.117250442504883
v 47.5745849609375 100 -18.280204772949219
v 47.917789459228516 100 -10.873380661010742
v 79.821372985839844 100 -17.545276641845703
v 81.949546813964844 100 -38.623630523681641
v 44.415985107421875 100 -29.703409194946289
v 44.415985107421875 100 -29.703409194946289
v 44.415985107421875 102.5 -29.703409194946289
v 81.949546813964844 100 -38.623630523681641
v 81.949546813964844 102.5 -38.623630523681641
v 44.805473327636719 100 -22.296585083007813
v 44.805473327636719 102.5 -22.296585083007813
v 44.415985107421875 100 -29.703409194946289
v 44.415985107421875 102.5 -29.703409194946289
v 76.052032470703125 100 -29.722639083862305
v 76.052032470703125 102.5 -29.722639083862305
v 44.805473327636719 100 -22.296585083007813
v 44.805473327636719 102.5 -22.296585083007813
v 75.486083984375 100 -24.117250442504883
v 75.486083984375 102.5 -24.117250442504883
v 76.052032470703125 100 -29.722639083862305
v 76.052032470703125 102.5 -29.722639083862305
v 47.5745849609375 100 -18.280204772949219
v 47.5745849609375 102.5 -18.280204772949219
v 75.486083984375 100 -24.117250442504883
v 75.486083984375 102.5 -24.117250442504883
v 47.917789459228516 100 -10.873380661010742
v 47.917789459228516 102.5 -10.873380661010742
v 47.5745849609375 100 -18.280204772949219
v 47.5745849609375 102.5 -18.280204772949219
v 79.821372985839844 100 -17.545276641845703
v 79.821372985839844 102.5 -17.545276641845703
v 47.917789459228516 100 -10.873380661010742
v 47.917789459228516 102.5 -10.873380661010742
v 81.949546813964844 100 -38.623630523681641
v 81.949546813964844 102.5 -38.623630523681641
v 79.821372985839844 100 -17.545276641845703
v 79.821372985839844 102.5 -17.545276641845703
v 81.949546813964844 102.5 -38.623630523681641
v 44.415985107421875 102.5 -29.703409194946289
v 44.805473327636719 102.5 -22.296585083007813
v 76.052032470703125 102.5 -29.722639083862305
v 75.486083984375 102.5 -24.117250442504883
v 47.5745849609375 102.5 -18.280204772949219
v 47.917789459228516 102.5 -10.873380661010742
v 79.821372985839844 102.5 -17.545276641845703
vt 0.69989013671875 0.21311472356319427
vt 0.58222085237503052 0.69994276762008667
vt 0.67104083299636841 0.70470434427261353
vt 0.76353156566619873 0.26428577303886414
vt 0.88089615106582642 0.2820398211479187
vt 0.77517682313919067 0.79205900430679321
vt 0.44118049740791321 0.77081471681594849
vt 0.58252555131912231 0.19606503844261169
vt 0.92010915279388428 0
vt 0.88236099481582642 0
vt 0.92010915279388428 0.60511928796768188
vt 0.88236099481582642 0.60511928796768188
vt 0.95932215452194214 0
vt 0.92157399654388428 0
vt 0.95932215452194214 0.11633804440498352
vt 0.92157399654388428 0.11633804440498352
vt 0 0.03921300545334816
vt 0 0.07696116715669632
vt 0.50375974178314209 0.03921300545334816
vt 0.50375974178314209 0.07696116715669632
vt 0 0.07842601090669632
vt 0 0.11617417633533478
vt 0.088368654251098633 0.07842601090669632
vt 0.088368654251098633 0.11617417633533478
vt 0 0
vt 0 0.03774816170334816
vt 0.44726845622062683 0
vt 0.44726845622062683 0.03774816170334816
vt 0 0.11763902008533478
vt 0 0.15538717806339264
vt 0.11630218476057053 0.11763902008533478
vt 0.11630218476057053 0.15538717806339264
vt 0 0.15685202181339264
vt 0 0.19460019469261169
vt 0.51123958826065063 0.15685202181339264
vt 0.51123958826065063 0.19460019469261169
vt 0.99853515625 0
vt 0.96078699827194214 0
vt 0.99853515625 0.33229911327362061
vt 0.96078699827194214 0.33229911327362061
vt 0 0.77081471681594849
vt 0.1413450688123703 0.19606503844261169
vt 0.25870963931083679 0.21311472356319427
vt 0.1410403698682785 0.69994276762008667
vt 0.22986036539077759 0.70470434427261353
vt 0.32235106825828552 0.26428577303886414
vt 0.43971565365791321 0.2820398211479187
vt 0.33399632573127747 0.79205900430679321
vn 0 -1 0
vn 0 -1 0
vn 0 -1 0
vn 0 -1 0
vn 0 -1 0
vn 0 -1 0
vn 0 -1 0
vn 0 -1 0
vn -0.23121967911720276 0 -0.97290158271789551
vn -0.23121967911720276 0 -0.97290158271789551
vn -0.23121967911720276 0 -0.97290158271789551
vn -0.23121967911720276 0 -0.97290158271789551
vn -0.99862027168273926 0 0.052512470632791519
vn -0.99862027168273926 0 0.052512470632791519
vn -0.99862027168273926 0 0.052512470632791519
vn -0.99862027168273926 0 0.052512470632791519
vn 0.23121967911720276 0 0.97290158271789551
vn 0.23121967911720276 0 0.97290158271789551
vn 0.23121967911720276 0 0.97290158271789551
vn 0.23121967911720276 0 0.97290158271789551
vn -0.99494165182113647 0 -0.10045427083969116
vn -0.99494165182113647 0 -0.10045427083969116
vn -0.99494165182113647 0 -0.10045427083969116
vn -0.99494165182113647 0 -0.10045427083969116
vn -0.20469865202903748 0 -0.97882503271102905
vn -0.20469865202903748 0 -0.97882503271102905
vn -0.20469865202903748 0 -0.97882503271102905
vn -0.20469865202903748 0 -0.97882503271102905
vn -0.99892818927764893 0 0.046286739408969879
vn -0.99892818927764893 0 0.046286739408969879
vn -0.99892818927764893 0 0.046286739408969879
vn -0.99892818927764893 0 0.046286739408969879
vn 0.20469865202903748 0 0.97882503271102905
vn 0.20469865202903748 0 0.97882503271102905
vn 0.20469865202903748 0 0.97882503271102905
vn 0.20469865202903748 0 0.97882503271102905
vn 0.99494165182113647 0 0.10045427083969116
vn 0.99494165182113647 0 0.10045427083969116
vn 0.99494165182113647 0 0.10045427083969116
vn 0.99494165182113647 0 0.10045427083969116
vn 0 1 0
vn 0 1 0
vn 0 1 0
vn 0 1 0
vn 0 1 0
vn 0 1 0
vn 0 1 0
vn 0 1 0
f 7/7/7 2/2/2 8/8/8
f 3/3/3 2/2/2 6/6/6
f 7/7/7 6/6/6 2/2/2
f 1/1/1 8/8/8 2/2/2
f 4/4/4 3/3/3 5/5/5
f 5/5/5 3/3/3 6/6/6
f 10/10/10 12/12/12 11/11/11 9/9/9
f 14/14/14 16/16/16 15/15/15 13/13/13
f 18/18/18 20/20/20 19/19/19 17/17/17
f 22/22/22 24/24/24 23/23/23 21/21/21
f 26/26/26 28/28/28 27/27/27 25/25/25
f 30/30/30 32/32/32 31/31/31 29/29/29
f 34/34/34 36/36/36 35/35/35 33/33/33
f 38/38/38 40/40/40 39/39/39 37/37/37
f 41/41/41 42/42/42 44/44/44
f 45/45/45 48/48/48 44/44/44
f 41/41/41 44/44/44 48/48/48
f 43/43/43 44/44/44 42/42/42
f 46/46/46 47/47/47 45/45/45
f 47/47/47 48/48/48 45/45/45
