# Rhino

mtllib 4_1.mtl
usemtl diffuse_0_0_0_255
v 47.917789459228516 150 0
v 25.352731704711914 150 0
v 25.352731704711914 150 -10.873380661010742
v 14.36323356628418 150 -10.873380661010742
v 14.36323356628418 150 -37.073440551757813
v 29.036060333251953 150 -37.073440551757813
v 29.036060333251953 150 -29.703409194946289
v 44.415985107421875 150 -29.703409194946289
v 47.917789459228516 150 -10.873380661010742
v 47.917789459228516 150 0
v 47.917789459228516 152.5 0
v 47.917789459228516 150 -10.873380661010742
v 47.917789459228516 152.5 -10.873380661010742
v 25.352731704711914 150 0
v 25.352731704711914 152.5 0
v 47.917789459228516 150 0
v 47.917789459228516 152.5 0
v 25.352731704711914 150 -10.873380661010742
v 25.352731704711914 152.5 -10.873380661010742
v 25.352731704711914 150 0
v 25.352731704711914 152.5 0
v 14.36323356628418 150 -10.873380661010742
v 14.36323356628418 152.5 -10.873380661010742
v 25.352731704711914 150 -10.873380661010742
v 25.352731704711914 152.5 -10.873380661010742
v 14.36323356628418 150 -37.073440551757813
v 14.36323356628418 152.5 -37.073440551757813
v 14.36323356628418 150 -10.873380661010742
v 14.36323356628418 152.5 -10.873380661010742
v 29.036060333251953 150 -37.073440551757813
v 29.036060333251953 152.5 -37.073440551757813
v 14.36323356628418 150 -37.073440551757813
v 14.36323356628418 152.5 -37.073440551757813
v 29.036060333251953 150 -29.703409194946289
v 29.036060333251953 152.5 -29.703409194946289
v 29.036060333251953 150 -37.073440551757813
v 29.036060333251953 152.5 -37.073440551757813
v 44.415985107421875 150 -29.703409194946289
v 44.415985107421875 152.5 -29.703409194946289
v 29.036060333251953 150 -29.703409194946289
v 29.036060333251953 152.5 -29.703409194946289
v 47.917789459228516 150 -10.873380661010742
v 47.917789459228516 152.5 -10.873380661010742
v 44.415985107421875 150 -29.703409194946289
v 44.415985107421875 152.5 -29.703409194946289
v 47.917789459228516 152.5 -10.873380661010742
v 47.917789459228516 152.5 0
v 25.352731704711914 152.5 0
v 25.352731704711914 152.5 -10.873380661010742
v 14.36323356628418 152.5 -10.873380661010742
v 14.36323356628418 152.5 -37.073440551757813
v 29.036060333251953 152.5 -37.073440551757813
v 29.036060333251953 152.5 -29.703409194946289
v 44.415985107421875 152.5 -29.703409194946289
vt 0.4887540340423584 0.7872355580329895
vt 0.4887540340423584 0.47703182697296143
vt 0.63826924562454224 0.47703182697296143
vt 0.63826924562454224 0.325958251953125
vt 0.99853515625 0.325958251953125
vt 0.99853515625 0.52766686677932739
vt 0.89719295501708984 0.52766686677932739
vt 0.89719295501708984 0.73909598588943481
vt 0.63826924562454224 0.7872355580329895
vt 0.47844108939170837 0.034473259001970291
vt 0.47844108939170837 0.067481674253940582
vt 0.62837743759155273 0.034473259001970291
vt 0.62837743759155273 0.067481674253940582
vt 0.47844108939170837 0.17236629128456116
vt 0.47844108939170837 0.20537470281124115
vt 0.78959751129150391 0.17236629128456116
vt 0.78959751129150391 0.20537470281124115
vt 0.47844108939170837 0.068946518003940582
vt 0.47844108939170837 0.10195492953062057
vt 0.62837743759155273 0.068946518003940582
vt 0.62837743759155273 0.10195492953062057
vt 0.47844108939170837 0.10341977328062057
vt 0.47844108939170837 0.13642819225788116
vt 0.62997859716415405 0.10341977328062057
vt 0.62997859716415405 0.13642819225788116
vt 0.47844108939170837 0.20683954656124115
vt 0.47844108939170837 0.23984795808792114
vt 0.8397216796875 0.20683954656124115
vt 0.8397216796875 0.23984795808792114
vt 0.47844108939170837 0.24131280183792114
vt 0.47844108939170837 0.27432122826576233
vt 0.68076914548873901 0.24131280183792114
vt 0.68076914548873901 0.27432122826576233
vt 0.47844108939170837 0
vt 0.47844108939170837 0.033008415251970291
vt 0.58006870746612549 0
vt 0.58006870746612549 0.033008415251970291
vt 0.47844108939170837 0.27578607201576233
vt 0.47844108939170837 0.30879446864128113
vt 0.69051957130432129 0.27578607201576233
vt 0.69051957130432129 0.30879446864128113
vt 0.47844108939170837 0.13789303600788116
vt 0.47844108939170837 0.17090144753456116
vt 0.74254590272903442 0.13789303600788116
vt 0.74254590272903442 0.17090144753456116
vt 0.47697624564170837 0.36128056049346924
vt 0.47697624564170837 0.51121693849563599
vt 0.1667724996805191 0.51121693849563599
vt 0.1667724996805191 0.36128056049346924
vt 0.01569894514977932 0.36128056049346924
vt 0.01569894514977932 0
vt 0.21740752458572388 0
vt 0.21740752458572388 0.10162762552499771
vt 0.42883667349815369 0.10162762552499771
vn 0 -1 0
vn 0 -1 0
vn 0 -1 0
vn 0 -1 0
vn 0 -1 0
vn 0 -1 0
vn 0 -1 0
vn 0 -1 0
vn 0 -1 0
vn 1 0 0
vn 1 0 0
vn 1 0 0
vn 1 0 0
vn 0 0 1
vn 0 0 1
vn 0 0 1
vn 0 0 1
vn -1 0 0
vn -1 0 0
vn -1 0 0
vn -1 0 0
vn 0 0 1
vn 0 0 1
vn 0 0 1
vn 0 0 1
vn -1 0 0
vn -1 0 0
vn -1 0 0
vn -1 0 0
vn 0 0 -1
vn 0 0 -1
vn 0 0 -1
vn 0 0 -1
vn 1 0 0
vn 1 0 0
vn 1 0 0
vn 1 0 0
vn 0 0 -1
vn 0 0 -1
vn 0 0 -1
vn 0 0 -1
vn 0.98314374685287476 0 -0.18283435702323914
vn 0.98314374685287476 0 -0.18283435702323914
vn 0.98314374685287476 0 -0.18283435702323914
vn 0.98314374685287476 0 -0.18283435702323914
vn 0 1 0
vn 0 1 0
vn 0 1 0
vn 0 1 0
vn 0 1 0
vn 0 1 0
vn 0 1 0
vn 0 1 0
vn 0 1 0
f 7/7/7 3/3/3 4/4/4
f 2/2/2 3/3/3 9/9/9 1/1/1
f 7/7/7 4/4/4 5/5/5
f 5/5/5 6/6/6 7/7/7
f 7/7/7 8/8/8 9/9/9 3/3/3
f 11/11/11 10/10/10 12/12/12 13/13/13
f 15/15/15 14/14/14 16/16/16 17/17/17
f 19/19/19 18/18/18 20/20/20 21/21/21
f 23/23/23 22/22/22 24/24/24 25/25/25
f 27/27/27 26/26/26 28/28/28 29/29/29
f 31/31/31 30/30/30 32/32/32 33/33/33
f 35/35/35 34/34/34 36/36/36 37/37/37
f 39/39/39 38/38/38 40/40/40 41/41/41
f 43/43/43 42/42/42 44/44/44 45/45/45
f 53/53/53 50/50/50 49/49/49
f 48/48/48 47/47/47 46/46/46 49/49/49
f 53/53/53 51/51/51 50/50/50
f 51/51/51 53/53/53 52/52/52
f 53/53/53 49/49/49 46/46/46 54/54/54
