# Rhino

mtllib 4_4.mtl
usemtl diffuse_0_0_0_255
v 93.789573669433594 150 -20.466403961181641
v 98.0350341796875 150 -42.446506500244141
v 120.56121826171875 150 -47.800075531005859
v 128.56159973144531 150 -27.738170623779297
v 120.56121826171875 150 -47.800075531005859
v 120.56121826171875 152.5 -47.800075531005859
v 98.0350341796875 150 -42.446506500244141
v 98.0350341796875 152.5 -42.446506500244141
v 128.56159973144531 150 -27.738170623779297
v 128.56159973144531 152.5 -27.738170623779297
v 120.56121826171875 150 -47.800075531005859
v 120.56121826171875 152.5 -47.800075531005859
v 93.789573669433594 150 -20.466403961181641
v 93.789573669433594 152.5 -20.466403961181641
v 128.56159973144531 150 -27.738170623779297
v 128.56159973144531 152.5 -27.738170623779297
v 98.0350341796875 150 -42.446506500244141
v 98.0350341796875 152.5 -42.446506500244141
v 93.789573669433594 150 -20.466403961181641
v 93.789573669433594 152.5 -20.466403961181641
v 93.789573669433594 152.5 -20.466403961181641
v 98.0350341796875 152.5 -42.446506500244141
v 120.56121826171875 152.5 -47.800075531005859
v 128.56159973144531 152.5 -27.738170623779297
vt 0.18292456865310669 0.99853515625
vt 0.26041138172149658 0.59764301776885986
vt 0.67155182361602783 0.5
vt 0.81757205724716187 0.86590641736984253
vt 0.13572858273983002 0
vt 0.091462284326553345 0
vt 0.13572858273983002 0.42353639006614685
vt 0.091462284326553345 0.42353639006614685
vt 0.044266298413276672 0
vt 0 0
vt 0.044266298413276672 0.39508578181266785
vt 0 0.39508578181266785
vt 0.18145972490310669 0
vt 0.13719342648983002 0
vt 0.18145972490310669 0.6498258113861084
vt 0.13719342648983002 0.6498258113861084
vt 0.089997440576553345 0
vt 0.045731142163276672 0
vt 0.089997440576553345 0.40950140357017517
vt 0.045731142163276672 0.40950140357017517
vt 0.18292456865310669 0.49853515625
vt 0.26041138172149658 0.097643040120601654
vt 0.67155182361602783 0
vt 0.81757205724716187 0.36590638756752014
vn 0 -1 0
vn 0 -1 0
vn 0 -1 0
vn 0 -1 0
vn -0.23121967911720276 0 -0.97290158271789551
vn -0.23121967911720276 0 -0.97290158271789551
vn -0.23121967911720276 0 -0.97290158271789551
vn -0.23121967911720276 0 -0.97290158271789551
vn 0.92886549234390259 0 -0.37041717767715454
vn 0.92886549234390259 0 -0.37041717767715454
vn 0.92886549234390259 0 -0.37041717767715454
vn 0.92886549234390259 0 -0.37041717767715454
vn 0.20469865202903748 0 0.97882503271102905
vn 0.20469865202903748 0 0.97882503271102905
vn 0.20469865202903748 0 0.97882503271102905
vn 0.20469865202903748 0 0.97882503271102905
vn -0.98185265064239502 0 -0.18964524567127228
vn -0.98185265064239502 0 -0.18964524567127228
vn -0.98185265064239502 0 -0.18964524567127228
vn -0.98185265064239502 0 -0.18964524567127228
vn 0 1 0
vn 0 1 0
vn 0 1 0
vn 0 1 0
f 4/4/4 1/1/1 2/2/2
f 2/2/2 3/3/3 4/4/4
f 6/6/6 5/5/5 7/7/7 8/8/8
f 10/10/10 9/9/9 11/11/11 12/12/12
f 14/14/14 13/13/13 15/15/15 16/16/16
f 18/18/18 17/17/17 19/19/19 20/20/20
f 24/24/24 22/22/22 21/21/21
f 22/22/22 24/24/24 23/23/23
