# Rhino

mtllib 5_2.mtl
usemtl diffuse_0_0_0_255
v 44.415985107421875 200 -10.141058921813965
v 81.949546813964844 200 -38.623630523681641
v 79.821372985839844 200 -17.545276641845703
v 44.415985107421875 200 -29.703409194946289
v 51.517910003662109 200 -19.104860305786133
v 50.665355682373047 200 -23.689243316650391
v 76.052032470703125 200 -29.722639083862305
v 75.486083984375 200 -24.117250442504883
v 44.415985107421875 200 -29.703409194946289
v 44.415985107421875 202.5 -29.703409194946289
v 81.949546813964844 200 -38.623630523681641
v 81.949546813964844 202.5 -38.623630523681641
v 44.415985107421875 200 -10.141058921813965
v 44.415985107421875 202.5 -10.141058921813965
v 44.415985107421875 200 -29.703409194946289
v 44.415985107421875 202.5 -29.703409194946289
v 79.821372985839844 200 -17.545276641845703
v 79.821372985839844 202.5 -17.545276641845703
v 44.415985107421875 200 -10.141058921813965
v 44.415985107421875 202.5 -10.141058921813965
v 81.949546813964844 200 -38.623630523681641
v 81.949546813964844 202.5 -38.623630523681641
v 79.821372985839844 200 -17.545276641845703
v 79.821372985839844 202.5 -17.545276641845703
v 76.052032470703125 200 -29.722639083862305
v 76.052032470703125 202.5 -29.722639083862305
v 50.665355682373047 200 -23.689243316650391
v 50.665355682373047 202.5 -23.689243316650391
v 75.486083984375 200 -24.117250442504883
v 75.486083984375 202.5 -24.117250442504883
v 76.052032470703125 200 -29.722639083862305
v 76.052032470703125 202.5 -29.722639083862305
v 51.517910003662109 200 -19.104860305786133
v 51.517910003662109 202.5 -19.104860305786133
v 75.486083984375 200 -24.117250442504883
v 75.486083984375 202.5 -24.117250442504883
v 50.665355682373047 200 -23.689243316650391
v 50.665355682373047 202.5 -23.689243316650391
v 51.517910003662109 200 -19.104860305786133
v 51.517910003662109 202.5 -19.104860305786133
v 44.415985107421875 202.5 -10.141058921813965
v 81.949546813964844 202.5 -38.623630523681641
v 79.821372985839844 202.5 -17.545276641845703
v 50.665355682373047 202.5 -23.689243316650391
v 76.052032470703125 202.5 -29.722639083862305
v 75.486083984375 202.5 -24.117250442504883
v 51.517910003662109 202.5 -19.104860305786133
v 44.415985107421875 202.5 -29.703409194946289
vt 0.88219320774078369 0.19390323758125305
vt 0.44182902574539185 0.77466869354248047
vt 0.76771783828735352 0.74173897504806519
vt 0.57974302768707275 0.19390323758125305
vt 0.74360543489456177 0.30379292368888855
vt 0.67272704839706421 0.29060116410255432
vt 0.57944571971893311 0.68341517448425293
vt 0.66610968112945557 0.67465806007385254
vt 0.92097383737564087 0
vt 0.88365805149078369 0
vt 0.92097383737564087 0.59844732284545898
vt 0.88365805149078369 0.59844732284545898
vt 0.95975452661514282 0
vt 0.92243868112564087 0
vt 0.95975452661514282 0.30345624685287476
vt 0.92243868112564087 0.30345624685287476
vt 0 0.15512259304523468
vt 0 0.19243839383125305
vt 0.56109875440597534 0.15512259304523468
vt 0.56109875440597534 0.19243839383125305
vt 0.99853515625 0
vt 0.96121937036514282 0
vt 0.99853515625 0.32863521575927734
vt 0.96121937036514282 0.32863521575927734
vt 0 0.03878064826130867
vt 0 0.07609645277261734
vt 0.40477347373962402 0.03878064826130867
vt 0.40477347373962402 0.07609645277261734
vt 0 0.11634194850921631
vt 0 0.15365774929523468
vt 0.087394312024116516 0.11634194850921631
vt 0.087394312024116516 0.15365774929523468
vt 0 0
vt 0 0.03731580451130867
vt 0.37984377145767212 0
vt 0.37984377145767212 0.03731580451130867
vt 0 0.07756129652261734
vt 0 0.11487710475921631
vt 0.072333425283432007 0.07756129652261734
vt 0.072333425283432007 0.11487710475921631
vt 0.44036418199539185 0.19390323758125305
vt 0 0.77466869354248047
vt 0.32588881254196167 0.74173897504806519
vt 0.23089800775051117 0.29060116410255432
vt 0.13761672377586365 0.68341517448425293
vt 0.22428068518638611 0.67465806007385254
vt 0.30177637934684753 0.30379292368888855
vt 0.1379140317440033 0.19390323758125305
vn 0 -1 0
vn 0 -1 0
vn 0 -1 0
vn 0 -1 0
vn 0 -1 0
vn 0 -1 0
vn 0 -1 0
vn 0 -1 0
vn -0.23121967911720276 0 -0.97290158271789551
vn -0.23121967911720276 0 -0.97290158271789551
vn -0.23121967911720276 0 -0.97290158271789551
vn -0.23121967911720276 0 -0.97290158271789551
vn -1 0 0
vn -1 0 0
vn -1 0 0
vn -1 0 0
vn 0.20469865202903748 0 0.97882503271102905
vn 0.20469865202903748 0 0.97882503271102905
vn 0.20469865202903748 0 0.97882503271102905
vn 0.20469865202903748 0 0.97882503271102905
vn 0.99494165182113647 0 0.10045427083969116
vn 0.99494165182113647 0 0.10045427083969116
vn 0.99494165182113647 0 0.10045427083969116
vn 0.99494165182113647 0 0.10045427083969116
vn 0.23121967911720276 0 0.97290158271789551
vn 0.23121967911720276 0 0.97290158271789551
vn 0.23121967911720276 0 0.97290158271789551
vn 0.23121967911720276 0 0.97290158271789551
vn -0.99494165182113647 0 -0.10045427083969116
vn -0.99494165182113647 0 -0.10045427083969116
vn -0.99494165182113647 0 -0.10045427083969116
vn -0.99494165182113647 0 -0.10045427083969116
vn -0.20469865202903748 0 -0.97882503271102905
vn -0.20469865202903748 0 -0.97882503271102905
vn -0.20469865202903748 0 -0.97882503271102905
vn -0.20469865202903748 0 -0.97882503271102905
vn 0.98314374685287476 0 -0.18283435702323914
vn 0.98314374685287476 0 -0.18283435702323914
vn 0.98314374685287476 0 -0.18283435702323914
vn 0.98314374685287476 0 -0.18283435702323914
vn 0 1 0
vn 0 1 0
vn 0 1 0
vn 0 1 0
vn 0 1 0
vn 0 1 0
vn 0 1 0
vn 0 1 0
f 6/6/6 5/5/5 1/1/1
f 3/3/3 1/1/1 5/5/5
f 7/7/7 6/6/6 4/4/4
f 1/1/1 4/4/4 6/6/6
f 7/7/7 3/3/3 8/8/8
f 5/5/5 8/8/8 3/3/3
f 4/4/4 2/2/2 7/7/7
f 3/3/3 7/7/7 2/2/2
f 10/10/10 12/12/12 11/11/11 9/9/9
f 14/14/14 16/16/16 15/15/15 13/13/13
f 18/18/18 20/20/20 19/19/19 17/17/17
f 22/22/22 24/24/24 23/23/23 21/21/21
f 26/26/26 28/28/28 27/27/27 25/25/25
f 30/30/30 32/32/32 31/31/31 29/29/29
f 34/34/34 36/36/36 35/35/35 33/33/33
f 38/38/38 40/40/40 39/39/39 37/37/37
f 44/44/44 41/41/41 47/47/47
f 43/43/43 47/47/47 41/41/41
f 45/45/45 48/48/48 44/44/44
f 41/41/41 44/44/44 48/48/48
f 45/45/45 46/46/46 43/43/43
f 47/47/47 43/43/43 46/46/46
f 48/48/48 45/45/45 42/42/42
f 43/43/43 42/42/42 45/45/45
