# Rhino

mtllib 6_1.mtl
usemtl diffuse_0_0_0_255
v 21.374658584594727 250 -10.873380661010742
v 44.415985107421875 250 -29.703409194946289
v 29.036060333251953 250 -29.703409194946289
v 29.036060333251953 250 -37.073440551757813
v 24.835094451904297 250 -37.073440551757813
v 14.36323356628418 250 -21.380544662475586
v 47.917789459228516 250 -10.873380661010742
v 44.415985107421875 250 -29.703409194946289
v 44.415985107421875 252.5 -29.703409194946289
v 47.917789459228516 250 -10.873380661010742
v 47.917789459228516 252.5 -10.873380661010742
v 29.036060333251953 250 -29.703409194946289
v 29.036060333251953 252.5 -29.703409194946289
v 44.415985107421875 250 -29.703409194946289
v 44.415985107421875 252.5 -29.703409194946289
v 29.036060333251953 250 -37.073440551757813
v 29.036060333251953 252.5 -37.073440551757813
v 29.036060333251953 250 -29.703409194946289
v 29.036060333251953 252.5 -29.703409194946289
v 24.835094451904297 250 -37.073440551757813
v 24.835094451904297 252.5 -37.073440551757813
v 29.036060333251953 250 -37.073440551757813
v 29.036060333251953 252.5 -37.073440551757813
v 14.36323356628418 250 -21.380544662475586
v 14.36323356628418 252.5 -21.380544662475586
v 24.835094451904297 250 -37.073440551757813
v 24.835094451904297 252.5 -37.073440551757813
v 21.374658584594727 250 -10.873380661010742
v 21.374658584594727 252.5 -10.873380661010742
v 14.36323356628418 250 -21.380544662475586
v 14.36323356628418 252.5 -21.380544662475586
v 47.917789459228516 250 -10.873380661010742
v 47.917789459228516 252.5 -10.873380661010742
v 21.374658584594727 250 -10.873380661010742
v 21.374658584594727 252.5 -10.873380661010742
v 47.917789459228516 252.5 -10.873380661010742
v 44.415985107421875 252.5 -29.703409194946289
v 29.036060333251953 252.5 -29.703409194946289
v 29.036060333251953 252.5 -37.073440551757813
v 24.835094451904297 252.5 -37.073440551757813
v 14.36323356628418 252.5 -21.380544662475586
v 21.374658584594727 252.5 -10.873380661010742
vt 0.48922348022460938 0.5
vt 0.92796969413757324 0.85829806327819824
vt 0.63510966300964355 0.85829806327819824
vt 0.63510966300964355 0.99853515625
vt 0.55511611700057983 0.99853515625
vt 0.35571399331092834 0.69993048906326294
vt 0.99465000629425049 0.5
vt 0.1893744021654129 0
vt 0.14312943816184998 0
vt 0.1893744021654129 0.36551201343536377
vt 0.14312943816184998 0.36551201343536377
vt 0.093954779207706451 0
vt 0.047709811478853226 0
vt 0.093954779207706451 0.29350933432579041
vt 0.047709811478853226 0.29350933432579041
vt 0.28479403257369995 0
vt 0.23854905366897583 0
vt 0.28479403257369995 0.14064916968345642
vt 0.23854905366897583 0.14064916968345642
vt 0.23708420991897583 0
vt 0.1908392459154129 0
vt 0.23708420991897583 0.080170907080173492
vt 0.1908392459154129 0.080170907080173492
vt 0.14166459441184998 0
vt 0.095419622957706451 0
vt 0.14166459441184998 0.36003780364990234
vt 0.095419622957706451 0.36003780364990234
vt 0.046244967728853226 0
vt 0 0
vt 0.046244967728853226 0.24106298387050629
vt 0 0.24106298387050629
vt 0.33250382542610168 0
vt 0.28625887632369995 0
vt 0.33250382542610168 0.50654709339141846
vt 0.28625887632369995 0.50654709339141846
vt 0.99465000629425049 0
vt 0.92796969413757324 0.35829803347587585
vt 0.63510966300964355 0.35829803347587585
vt 0.63510966300964355 0.49853515625
vt 0.55511611700057983 0.49853515625
vt 0.35571399331092834 0.19993048906326294
vt 0.48922348022460938 0
vn 0 -1 0
vn 0 -1 0
vn 0 -1 0
vn 0 -1 0
vn 0 -1 0
vn 0 -1 0
vn 0 -1 0
vn 0.98314374685287476 0 -0.18283435702323914
vn 0.98314374685287476 0 -0.18283435702323914
vn 0.98314374685287476 0 -0.18283435702323914
vn 0.98314374685287476 0 -0.18283435702323914
vn 0 0 -1
vn 0 0 -1
vn 0 0 -1
vn 0 0 -1
vn 1 0 0
vn 1 0 0
vn 1 0 0
vn 1 0 0
vn 0 0 -1
vn 0 0 -1
vn 0 0 -1
vn 0 0 -1
vn -0.83180725574493408 0 -0.55506455898284912
vn -0.83180725574493408 0 -0.55506455898284912
vn -0.83180725574493408 0 -0.55506455898284912
vn -0.83180725574493408 0 -0.55506455898284912
vn -0.83180725574493408 0 0.55506455898284912
vn -0.83180725574493408 0 0.55506455898284912
vn -0.83180725574493408 0 0.55506455898284912
vn -0.83180725574493408 0 0.55506455898284912
vn 0 0 1
vn 0 0 1
vn 0 0 1
vn 0 0 1
vn 0 1 0
vn 0 1 0
vn 0 1 0
vn 0 1 0
vn 0 1 0
vn 0 1 0
vn 0 1 0
f 3/3/3 6/6/6 5/5/5
f 1/1/1 6/6/6 3/3/3
f 2/2/2 7/7/7 1/1/1 3/3/3
f 5/5/5 4/4/4 3/3/3
f 9/9/9 11/11/11 10/10/10 8/8/8
f 13/13/13 15/15/15 14/14/14 12/12/12
f 17/17/17 19/19/19 18/18/18 16/16/16
f 21/21/21 23/23/23 22/22/22 20/20/20
f 25/25/25 27/27/27 26/26/26 24/24/24
f 29/29/29 31/31/31 30/30/30 28/28/28
f 33/33/33 35/35/35 34/34/34 32/32/32
f 38/38/38 40/40/40 41/41/41
f 42/42/42 38/38/38 41/41/41
f 37/37/37 38/38/38 42/42/42 36/36/36
f 40/40/40 38/38/38 39/39/39
