# Rhino

mtllib 6_2.mtl
usemtl diffuse_0_0_0_255
v 81.949546813964844 250 -38.623630523681641
v 47.917789459228516 250 -10.873380661010742
v 79.821372985839844 250 -17.545276641845703
v 44.415985107421875 250 -29.703409194946289
v 51.517910003662109 250 -19.104860305786133
v 50.665355682373047 250 -23.689243316650391
v 76.052032470703125 250 -29.722639083862305
v 75.486083984375 250 -24.117250442504883
v 44.415985107421875 250 -29.703409194946289
v 44.415985107421875 252.5 -29.703409194946289
v 81.949546813964844 250 -38.623630523681641
v 81.949546813964844 252.5 -38.623630523681641
v 47.917789459228516 250 -10.873380661010742
v 47.917789459228516 252.5 -10.873380661010742
v 44.415985107421875 250 -29.703409194946289
v 44.415985107421875 252.5 -29.703409194946289
v 79.821372985839844 250 -17.545276641845703
v 79.821372985839844 252.5 -17.545276641845703
v 47.917789459228516 250 -10.873380661010742
v 47.917789459228516 252.5 -10.873380661010742
v 81.949546813964844 250 -38.623630523681641
v 81.949546813964844 252.5 -38.623630523681641
v 79.821372985839844 250 -17.545276641845703
v 79.821372985839844 252.5 -17.545276641845703
v 76.052032470703125 250 -29.722639083862305
v 76.052032470703125 252.5 -29.722639083862305
v 50.665355682373047 250 -23.689243316650391
v 50.665355682373047 252.5 -23.689243316650391
v 75.486083984375 250 -24.117250442504883
v 75.486083984375 252.5 -24.117250442504883
v 76.052032470703125 250 -29.722639083862305
v 76.052032470703125 252.5 -29.722639083862305
v 51.517910003662109 250 -19.104860305786133
v 51.517910003662109 252.5 -19.104860305786133
v 75.486083984375 250 -24.117250442504883
v 75.486083984375 252.5 -24.117250442504883
v 50.665355682373047 250 -23.689243316650391
v 50.665355682373047 252.5 -23.689243316650391
v 51.517910003662109 250 -19.104860305786133
v 51.517910003662109 252.5 -19.104860305786133
v 81.949546813964844 252.5 -38.623630523681641
v 44.415985107421875 252.5 -29.703409194946289
v 47.917789459228516 252.5 -10.873380661010742
v 79.821372985839844 252.5 -17.545276641845703
v 50.665355682373047 252.5 -23.689243316650391
v 76.052032470703125 252.5 -29.722639083862305
v 75.486083984375 252.5 -24.117250442504883
v 51.517910003662109 252.5 -19.104860305786133
vt 0.44047665596008301 0.79271233081817627
vt 0.87948846817016602 0.25385820865631104
vt 0.77393835783004761 0.75901514291763306
vt 0.58159548044204712 0.19841112196445465
vt 0.74926561117172241 0.3108619749546051
vt 0.67674022912979126 0.29736277461051941
vt 0.58129125833511353 0.69933193922042847
vt 0.66996908187866211 0.69037079811096191
vt 0.91917067766189575 0
vt 0.88095331192016602 0
vt 0.91917067766189575 0.61236006021499634
vt 0.88095331192016602 0.61236006021499634
vt 0.95885294675827026 0
vt 0.92063552141189575 0
vt 0.95885294675827026 0.30401146411895752
vt 0.92063552141189575 0.30401146411895752
vt 0 0.15872889757156372
vt 0 0.19694627821445465
vt 0.51735705137252808 0.15872889757156372
vt 0.51735705137252808 0.19694627821445465
vt 0.99853515625 0
vt 0.96031779050827026 0
vt 0.99853515625 0.3362753689289093
vt 0.96031779050827026 0.3362753689289093
vt 0 0.03968222439289093
vt 0 0.07789960503578186
vt 0.41418370604515076 0.03968222439289093
vt 0.41418370604515076 0.07789960503578186
vt 0 0.11904667317867279
vt 0 0.15726405382156372
vt 0.089426063001155853 0.11904667317867279
vt 0.089426063001155853 0.15726405382156372
vt 0 0
vt 0 0.03821738064289093
vt 0.38867440819740295 0
vt 0.38867440819740295 0.03821738064289093
vt 0 0.07936444878578186
vt 0 0.11758182942867279
vt 0.074015043675899506 0.07936444878578186
vt 0.074015043675899506 0.11758182942867279
vt 0 0.79271233081817627
vt 0.14111882448196411 0.19841112196445465
vt 0.43901181221008301 0.25385820865631104
vt 0.33346173167228699 0.75901514291763306
vt 0.23626354336738586 0.29736277461051941
vt 0.14081460237503052 0.69933193922042847
vt 0.2294924259185791 0.69037079811096191
vt 0.30878898501396179 0.3108619749546051
vn 0 -1 0
vn 0 -1 0
vn 0 -1 0
vn 0 -1 0
vn 0 -1 0
vn 0 -1 0
vn 0 -1 0
vn 0 -1 0
vn -0.23121967911720276 0 -0.97290158271789551
vn -0.23121967911720276 0 -0.97290158271789551
vn -0.23121967911720276 0 -0.97290158271789551
vn -0.23121967911720276 0 -0.97290158271789551
vn -0.98314374685287476 0 0.18283435702323914
vn -0.98314374685287476 0 0.18283435702323914
vn -0.98314374685287476 0 0.18283435702323914
vn -0.98314374685287476 0 0.18283435702323914
vn 0.20469865202903748 0 0.97882503271102905
vn 0.20469865202903748 0 0.97882503271102905
vn 0.20469865202903748 0 0.97882503271102905
vn 0.20469865202903748 0 0.97882503271102905
vn 0.99494165182113647 0 0.10045427083969116
vn 0.99494165182113647 0 0.10045427083969116
vn 0.99494165182113647 0 0.10045427083969116
vn 0.99494165182113647 0 0.10045427083969116
vn 0.23121967911720276 0 0.97290158271789551
vn 0.23121967911720276 0 0.97290158271789551
vn 0.23121967911720276 0 0.97290158271789551
vn 0.23121967911720276 0 0.97290158271789551
vn -0.99494165182113647 0 -0.10045427083969116
vn -0.99494165182113647 0 -0.10045427083969116
vn -0.99494165182113647 0 -0.10045427083969116
vn -0.99494165182113647 0 -0.10045427083969116
vn -0.20469865202903748 0 -0.97882503271102905
vn -0.20469865202903748 0 -0.97882503271102905
vn -0.20469865202903748 0 -0.97882503271102905
vn -0.20469865202903748 0 -0.97882503271102905
vn 0.98314374685287476 0 -0.18283435702323914
vn 0.98314374685287476 0 -0.18283435702323914
vn 0.98314374685287476 0 -0.18283435702323914
vn 0.98314374685287476 0 -0.18283435702323914
vn 0 1 0
vn 0 1 0
vn 0 1 0
vn 0 1 0
vn 0 1 0
vn 0 1 0
vn 0 1 0
vn 0 1 0
f 4/4/4 5/5/5 2/2/2
f 3/3/3 2/2/2 5/5/5
f 7/7/7 6/6/6 4/4/4
f 5/5/5 4/4/4 6/6/6
f 7/7/7 3/3/3 8/8/8
f 5/5/5 8/8/8 3/3/3
f 4/4/4 1/1/1 7/7/7
f 3/3/3 7/7/7 1/1/1
f 10/10/10 12/12/12 11/11/11 9/9/9
f 14/14/14 16/16/16 15/15/15 13/13/13
f 18/18/18 20/20/20 19/19/19 17/17/17
f 22/22/22 24/24/24 23/23/23 21/21/21
f 26/26/26 28/28/28 27/27/27 25/25/25
f 30/30/30 32/32/32 31/31/31 29/29/29
f 34/34/34 36/36/36 35/35/35 33/33/33
f 38/38/38 40/40/40 39/39/39 37/37/37
f 42/42/42 43/43/43 48/48/48
f 44/44/44 48/48/48 43/43/43
f 46/46/46 42/42/42 45/45/45
f 48/48/48 45/45/45 42/42/42
f 46/46/46 47/47/47 44/44/44
f 48/48/48 44/44/44 47/47/47
f 42/42/42 46/46/46 41/41/41
f 44/44/44 41/41/41 46/46/46
